<svg width="12" height="14" viewBox="0 0 12 14" fill="none" xmlns="http://www.w3.org/2000/svg">
<path fill-rule="evenodd" clip-rule="evenodd" d="M6 0C5.15477 0 4.40478 0.417219 3.93746 1.05719C3.84344 1.18595 3.76713 1.24004 3.72334 1.2591C2.03986 1.99201 0.857143 3.69776 0.857143 5.6875C0.857143 6.05924 0.898592 6.42219 0.977388 6.77138C0.996788 6.85736 0.991266 7.04317 0.890788 7.32719C0.795731 7.59588 0.645542 7.86684 0.496933 8.0737C0.18467 8.50837 0 9.04595 0 9.625C0 11.0747 1.15127 12.25 2.57143 12.25H3.42331C3.43262 12.2534 3.45638 12.2649 3.49619 12.2998C3.5729 12.3669 3.66167 12.4818 3.7434 12.6343C4.17881 13.4462 5.02544 14 6 14C6.97456 14 7.82119 13.4462 8.2566 12.6343C8.33833 12.4818 8.4271 12.3669 8.50381 12.2998C8.54362 12.2649 8.56738 12.2534 8.57669 12.25H9.42857C10.8487 12.25 12 11.0747 12 9.625C12 9.04595 11.8153 8.50837 11.5031 8.0737C11.3545 7.86684 11.2043 7.59588 11.1092 7.32719C11.0087 7.04317 11.0032 6.85736 11.0226 6.77138C11.1014 6.42219 11.1429 6.05924 11.1429 5.6875C11.1429 3.69776 9.96014 1.99201 8.27666 1.2591C8.23287 1.24004 8.15656 1.18595 8.06254 1.05719C7.59522 0.417219 6.84524 0 6 0ZM5.3119 2.10308C5.46961 1.8871 5.71902 1.75 6 1.75C6.28098 1.75 6.53039 1.8871 6.6881 2.10308C6.89199 2.3823 7.18945 2.68828 7.60417 2.86883C8.67831 3.33646 9.42857 4.42354 9.42857 5.6875C9.42857 5.92611 9.402 6.1573 9.35208 6.37855C9.22725 6.93175 9.344 7.48956 9.49685 7.92162C9.65512 8.369 9.88931 8.78656 10.1207 9.10861C10.2246 9.25327 10.2857 9.43057 10.2857 9.625C10.2857 10.1082 9.90196 10.5 9.42857 10.5H2.57143C2.09804 10.5 1.71429 10.1082 1.71429 9.625C1.71429 9.43057 1.7754 9.25327 1.87932 9.10861C2.11069 8.78656 2.34488 8.369 2.50315 7.92162C2.656 7.48956 2.77275 6.93175 2.64793 6.37855C2.598 6.1573 2.57143 5.92611 2.57143 5.6875C2.57143 4.42354 3.32169 3.33646 4.39583 2.86883C4.81055 2.68828 5.10801 2.38229 5.3119 2.10308Z" fill="white"/>
</svg>
