<svg width="14" height="14" viewBox="0 0 14 14" fill="none" xmlns="http://www.w3.org/2000/svg">
<path fill-rule="evenodd" clip-rule="evenodd" d="M4 1C4 0.447715 4.44772 0 5 0C5.55228 0 6 0.447715 6 1V2H8V1C8 0.447715 8.44772 0 9 0C9.55228 0 10 0.447715 10 1V2.17071C10.8524 2.47199 11.528 3.14759 11.8293 4H13C13.5523 4 14 4.44772 14 5C14 5.55228 13.5523 6 13 6H12V8H13C13.5523 8 14 8.44772 14 9C14 9.55228 13.5523 10 13 10H11.8293C11.528 10.8524 10.8524 11.528 10 11.8293V13C10 13.5523 9.55228 14 9 14C8.44772 14 8 13.5523 8 13V12H6V13C6 13.5523 5.55228 14 5 14C4.44772 14 4 13.5523 4 13V11.8293C3.14759 11.528 2.47199 10.8524 2.17071 10H1C0.447715 10 0 9.55228 0 9C0 8.44772 0.447715 8 1 8H2V6H1C0.447715 6 0 5.55228 0 5C0 4.44772 0.447715 4 1 4H2.17071C2.47199 3.14759 3.14759 2.47199 4 2.17071V1ZM10 5C10 4.44772 9.55229 4 9 4H5C4.44772 4 4 4.44772 4 5V9C4 9.55229 4.44772 10 5 10H9C9.55229 10 10 9.55229 10 9V5Z" fill="white"/>
</svg>
