<svg width="14" height="14" viewBox="0 0 14 14" fill="none" xmlns="http://www.w3.org/2000/svg">
<path fill-rule="evenodd" clip-rule="evenodd" d="M14 7C14 8.70055 13.3936 10.2595 12.3852 11.4723L10.6641 8.8906C10.4366 8.54931 10.1223 8.30051 9.77003 8.15395C9.91819 7.79873 10 7.40892 10 7C10 5.34315 8.65685 4 7 4C5.34315 4 4 5.34315 4 7C4 8.65679 5.34303 9.99989 6.99979 10C6.99944 10.3818 7.10822 10.7679 7.3359 11.1094L9.05802 13.6926C8.40732 13.8924 7.71622 14 7 14C3.13401 14 0 10.866 0 7C0 3.13401 3.13401 0 7 0C10.866 0 14 3.13401 14 7ZM9.83205 9.4453C9.5257 8.98577 8.90483 8.8616 8.4453 9.16795C7.98577 9.4743 7.8616 10.0952 8.16795 10.5547L10.168 13.5547C10.4743 14.0142 11.0952 14.1384 11.5547 13.832C12.0142 13.5257 12.1384 12.9048 11.8321 12.4453L9.83205 9.4453Z" fill="white"/>
</svg>
