<svg width="14" height="14" viewBox="0 0 14 14" fill="none" xmlns="http://www.w3.org/2000/svg">
<path fill-rule="evenodd" clip-rule="evenodd" d="M4.00007 6.97506C3.91074 6.99231 3.82333 7 3.74144 7H3.39833C3.16362 7 2.90991 6.94167 2.67646 6.79225C2.44498 6.64408 2.28891 6.44197 2.18997 6.24012L1.85775 5.56232V5.70833C1.85775 6.01718 1.753 6.35484 1.49324 6.61983C1.23173 6.88659 0.890914 7 0.571835 7H0.285918C0.191662 7 0.0955102 6.9901 6.59776e-05 6.96928L0 7C0 10.866 3.13401 14 7 14C7.71621 14 8.40731 13.8924 9.058 13.6926L7.33587 11.1094C7.10819 10.7679 6.99941 10.3818 6.99976 9.99998C5.343 9.99987 3.99997 8.65677 3.99997 6.99998L4.00007 6.97506ZM4.76454 4.99923C5.31384 4.38592 6.11184 3.99998 6.99997 3.99998C8.65682 3.99998 9.99997 5.34313 9.99997 6.99998C9.99997 7.4089 9.91816 7.79871 9.77 8.15394C10.1223 8.3005 10.4365 8.5493 10.6641 8.89058L12.3852 11.4723C13.3936 10.2595 14 8.70056 14 7C14 3.13401 10.866 0 7 0C6.04409 0 5.13293 0.191608 4.30284 0.538511C4.46869 0.891579 4.55355 1.2854 4.55355 1.7C4.55355 2.31724 4.34991 2.9184 3.97501 3.39382L4.76454 4.99923ZM8.44529 9.16796C8.90481 8.86161 9.52568 8.98578 9.83204 9.44531L11.832 12.4453C12.1384 12.9048 12.0142 13.5257 11.5547 13.8321C11.0952 14.1384 10.4743 14.0142 10.1679 13.5547L8.16794 10.5547C7.86158 10.0952 7.98576 9.47431 8.44529 9.16796ZM3.74144 6C3.962 6 4.06003 5.83333 3.962 5.63333L2.74481 3.15833C3.24312 2.875 3.55355 2.31667 3.55355 1.7C3.55355 0.666667 2.77749 0 1.57663 0H0.285918C0.106198 0 0 0.108333 0 0.291667V5.70833C0 5.88333 0.114367 6 0.285918 6H0.571835C0.743386 6 0.857753 5.88333 0.857753 5.70833V3.4H1.91156L3.08791 5.8C3.15326 5.93333 3.25946 6 3.39833 6H3.74144ZM1.57663 2.59167H0.857753V0.8H1.57663C2.2465 0.8 2.69579 1.16667 2.69579 1.7C2.69579 2.225 2.2465 2.59167 1.57663 2.59167Z" fill="white"/>
</svg>
