<svg width="14" height="14" viewBox="0 0 14 14" fill="none" xmlns="http://www.w3.org/2000/svg">
<path fill-rule="evenodd" clip-rule="evenodd" d="M6.39503 3.05176e-05C5.23007 3.05176e-05 4.2857 0.944422 4.2857 2.10937C4.2857 2.13819 4.27897 2.15404 4.27255 2.16472C4.26456 2.17801 4.25083 2.19262 4.23103 2.20406C4.21123 2.21549 4.19172 2.22007 4.17621 2.22035C4.16376 2.22056 4.14666 2.21846 4.12171 2.20406C3.11283 1.62158 1.82279 1.96725 1.24031 2.97612L0.635366 4.02392C0.052883 5.03281 0.39857 6.32287 1.40745 6.90534C1.4324 6.91975 1.44277 6.93351 1.44881 6.9444C1.45633 6.95797 1.46212 6.97717 1.46212 7.00004C1.46212 7.0229 1.45633 7.04209 1.44881 7.05566C1.44278 7.06655 1.43241 7.08031 1.40746 7.09471C0.398579 7.67719 0.0529118 8.96724 0.635387 9.97611L1.24035 11.0239C1.82282 12.0328 3.11286 12.3785 4.12173 11.796C4.14668 11.7816 4.16377 11.7795 4.17622 11.7797C4.19172 11.78 4.21124 11.7846 4.23104 11.796C4.25084 11.8074 4.26457 11.822 4.27255 11.8353C4.27897 11.846 4.2857 11.8619 4.2857 11.8907C4.2857 13.0556 5.23007 14 6.39502 14H7.60493C8.76988 14 9.71426 13.0556 9.71426 11.8907C9.71426 11.8618 9.72099 11.846 9.72741 11.8353C9.7354 11.822 9.74913 11.8074 9.76893 11.796C9.78873 11.7845 9.80825 11.78 9.82376 11.7797C9.83622 11.7795 9.85332 11.7816 9.87828 11.796C10.8872 12.3785 12.1772 12.0328 12.7597 11.0239L13.3646 9.97611C13.9471 8.96724 13.6015 7.67719 12.5926 7.09471C12.5676 7.08031 12.5573 7.06655 12.5512 7.05566C12.5437 7.0421 12.5379 7.0229 12.5379 7.00004C12.5379 6.97717 12.5437 6.95797 12.5512 6.9444C12.5573 6.93351 12.5676 6.91975 12.5926 6.90534C13.6015 6.32287 13.9471 5.03281 13.3647 4.02392L12.7597 2.97615C12.1772 1.96725 10.8872 1.62159 9.87829 2.20407C9.85334 2.21848 9.83623 2.22058 9.82377 2.22037C9.80826 2.22009 9.78874 2.21551 9.76894 2.20407C9.74913 2.19264 9.7354 2.17803 9.72741 2.16473C9.721 2.15406 9.71426 2.1382 9.71426 2.10938C9.71426 0.944417 8.76988 3.05176e-05 7.60491 3.05176e-05H6.39503ZM6.2857 2.10937C6.2857 2.04898 6.33466 2.00003 6.39503 2.00003H7.60491C7.66531 2.00003 7.71426 2.04899 7.71426 2.10938C7.71426 3.73317 9.47207 4.74801 10.8783 3.93612C10.9306 3.90592 10.9975 3.92385 11.0277 3.97615L11.6326 5.02392C11.6628 5.07621 11.6449 5.14309 11.5926 5.17329C10.1864 5.98516 10.1863 8.01487 11.5926 8.82677C11.6449 8.85696 11.6628 8.92382 11.6326 8.97611L11.0276 10.0239C10.9975 10.0762 10.9306 10.0941 10.8783 10.0639C9.47206 9.25205 7.71426 10.2669 7.71426 11.8907C7.71426 11.9511 7.66531 12 7.60493 12H6.39502C6.33465 12 6.2857 11.9511 6.2857 11.8907C6.2857 10.2669 4.52795 9.25206 3.12173 10.0639C3.06944 10.0941 3.00258 10.0762 2.9724 10.0239L2.36744 8.97611C2.33725 8.92382 2.35516 8.85696 2.40746 8.82677C3.81369 8.01487 3.81365 5.98516 2.40744 5.17329C2.35514 5.14309 2.33723 5.07621 2.36742 5.02392L2.97236 3.97612C3.00255 3.92383 3.06942 3.90592 3.12171 3.93611C4.52794 4.74799 6.2857 3.73312 6.2857 2.10937ZM6.99998 5C5.89541 5 4.99998 5.89543 4.99998 7C4.99998 8.10457 5.89541 9 6.99998 9C8.10455 9 8.99998 8.10457 8.99998 7C8.99998 5.89543 8.10455 5 6.99998 5Z" fill="white"/>
</svg>
