<svg width="14" height="14" viewBox="0 0 14 14" fill="none" xmlns="http://www.w3.org/2000/svg">
<path fill-rule="evenodd" clip-rule="evenodd" d="M13.0481 6.41587L12 7.57094V13C12 13.5523 12.4477 14 13 14C13.5523 14 14 13.5523 14 13V1C14 0.447715 13.5523 0 13 0C12.4477 0 12 0.447715 12 1V3.5214C12.3153 3.57025 12.6206 3.70301 12.8793 3.92128C13.6318 4.5562 13.7148 5.68112 13.0481 6.41587ZM9.00001 10C8.63906 10 8.28606 9.89168 7.98912 9.68967L7.98144 12.9976C7.98016 13.5499 8.42684 13.9987 8.97912 14C9.5314 14.0012 9.98015 13.5546 9.98144 13.0023L9.98909 9.70428C9.69674 9.8969 9.35216 10 9.00001 10ZM2 12C2 11.4477 1.55228 11 0.999998 11C0.447714 11 0 11.4477 0 12V13C2.41905e-06 13.5523 0.447718 14 1 14C1.55229 14 2 13.5523 2 13L2 12ZM6 9C6 8.44771 5.55229 8 5 8C4.44772 8 4 8.44772 4 9L4 13C4 13.5523 4.44772 14 5 14C5.55229 14 6 13.5523 6 13L6 9ZM8.41466 8.74388C8.56235 8.90664 8.77572 9 9 9C9.22428 9 9.43764 8.90664 9.58534 8.74388L12.3075 5.74388C12.5904 5.43215 12.5577 4.95833 12.2344 4.68557C11.9111 4.41281 11.4197 4.44439 11.1369 4.75612L9.77778 6.25391V0.75C9.77778 0.335786 9.42955 0 9 0C8.57045 0 8.22222 0.335786 8.22222 0.75V6.25391L6.86312 4.75612C6.58026 4.44439 6.08889 4.41281 5.76562 4.68557C5.44235 4.95833 5.40959 5.43215 5.69245 5.74388L8.41466 8.74388Z" fill="white"/>
</svg>
