<svg width="14" height="14" viewBox="0 0 14 14" fill="none" xmlns="http://www.w3.org/2000/svg">
<path fill-rule="evenodd" clip-rule="evenodd" d="M14 1C14 0.447715 13.5523 0 13 0C12.4477 0 12 0.447715 12 1V13C12 13.5523 12.4477 14 13 14C13.5523 14 14 13.5523 14 13V1ZM2 12C2 11.4477 1.55228 11 0.999997 11C0.447712 11 -2.55017e-06 11.4477 0 12V13C0 13.5523 0.447717 14 1 14C1.55229 14 2 13.5523 2 13L2 12ZM9.00232 4C9.5546 4.00128 10.0013 4.45004 10 5.00232L9.98144 13.0023C9.98015 13.5546 9.5314 14.0012 8.97912 14C8.42684 13.9987 7.98016 13.5499 7.98144 12.9976L8 4.99768C8.00128 4.4454 8.45004 3.99872 9.00232 4ZM6 9C6 8.44771 5.55228 8 5 8C4.44772 8 4 8.44772 4 9L4 13C4 13.5523 4.44772 14 5 14C5.55229 14 6 13.5523 6 13L6 9Z" fill="white"/>
</svg>
