<svg width="16" height="12" viewBox="0 0 16 12" fill="none" xmlns="http://www.w3.org/2000/svg">
<path fill-rule="evenodd" clip-rule="evenodd" d="M7.57802 0.412063C7.60439 0.237784 7.50679 0.069283 7.34883 0.0163852C7.19086 -0.0365126 7.02043 0.0422283 6.9486 0.201286L4.033 6.65815C3.98327 6.76828 3.9901 6.89793 4.0511 7.00142C4.1121 7.10491 4.21869 7.16772 4.33333 7.16772H7.09081L6.42198 11.5879C6.39561 11.7622 6.49321 11.9307 6.65117 11.9836C6.80914 12.0365 6.97957 11.9578 7.0514 11.7987L9.967 5.34185C10.0167 5.23172 10.0099 5.10207 9.9489 4.99858C9.8879 4.89509 9.78131 4.83228 9.66667 4.83228H6.90919L7.57802 0.412063ZM3 1.67517e-08H6.11385L5.16934 2H3C2.44772 2 2 2.44772 2 3L2 9C2 9.55228 2.44772 10 3 10H5.92214L5.65144 11.7106C5.63598 11.8083 5.63354 11.9054 5.64293 12H3C1.34315 12 0 10.6569 0 9V3C0 1.34315 1.34315 1.67517e-08 3 1.67517e-08ZM11 10H8.83066L7.88615 12H11C12.6569 12 14 10.6569 14 9L15 9C15.5523 9 16 8.55229 16 8V4C16 3.44772 15.5523 3 15 3L14 3C14 1.34315 12.6569 1.67517e-08 11 1.67517e-08H8.35707C8.36646 0.0945814 8.36402 0.19172 8.34856 0.28944L8.07786 2H11C11.5523 2 12 2.44772 12 3V9C12 9.55228 11.5523 10 11 10Z" fill="white"/>
</svg>
