<svg width="14" height="12" viewBox="0 0 14 12" fill="none" xmlns="http://www.w3.org/2000/svg">
<path fill-rule="evenodd" clip-rule="evenodd" d="M3 0C1.34315 0 0 1.34315 0 3V5C0 6.31133 0.841356 7.42615 2.0137 7.8341C2.00469 7.88806 2 7.94348 2 8V11C2 11.5523 2.44772 12 3 12C3.55228 12 4 11.5523 4 11V8H6V11C6 11.5523 6.44772 12 7 12C7.55228 12 8 11.5523 8 11V8H10V11C10 11.5523 10.4477 12 11 12C11.5523 12 12 11.5523 12 11V8C12 7.94348 11.9953 7.88806 11.9863 7.8341C13.1586 7.42616 14 6.31133 14 5V3C14 1.34315 12.6569 0 11 0H3ZM2 3C2 2.44772 2.44772 2 3 2H11C11.5523 2 12 2.44772 12 3V5C12 5.55228 11.5523 6 11 6H3C2.44772 6 2 5.55228 2 5V3Z" fill="white"/>
</svg>
