<svg width="11" height="10" viewBox="0 0 11 10" fill="none" xmlns="http://www.w3.org/2000/svg">
<path fill-rule="evenodd" clip-rule="evenodd" d="M9.92378 0.0163858C10.4734 -0.0381029 10.9224 0.414865 10.9224 0.96715C10.9224 1.51943 10.4724 1.96059 9.92437 2.0288C6.30405 2.47932 3.43455 5.34882 2.98403 8.96914C2.91582 9.51719 2.47467 9.96715 1.92238 9.96715C1.3701 9.96715 0.917128 9.51814 0.971616 8.96855C1.44013 4.24301 5.19824 0.484898 9.92378 0.0163858ZM9.92657 4.04941C10.4713 3.95842 10.9224 4.41486 10.9224 4.96715C10.9224 5.51943 10.4677 5.95432 9.9325 6.09058C8.51871 6.4505 7.40573 7.56348 7.04581 8.97727C6.90955 9.51248 6.47467 9.96715 5.92238 9.96715C5.3701 9.96715 4.91365 9.51608 5.00464 8.97134C5.42489 6.45545 7.41068 4.46966 9.92657 4.04941ZM9.92238 9.96715C10.4747 9.96715 10.9224 9.51943 10.9224 8.96715C10.9224 8.41486 10.4747 7.96715 9.92238 7.96715C9.37009 7.96715 8.92238 8.41486 8.92238 8.96715C8.92238 9.51943 9.37009 9.96715 9.92238 9.96715Z" fill="white"/>
</svg>
