<svg width="7" height="6" viewBox="0 0 7 6" fill="none" xmlns="http://www.w3.org/2000/svg">
<path fill-rule="evenodd" clip-rule="evenodd" d="M5.85591 0.0494279C6.40065 -0.0415643 6.85172 0.414886 6.85172 0.967171C6.85172 1.51946 6.39705 1.95434 5.86184 2.0906C4.44805 2.45052 3.33507 3.5635 2.97515 4.97729C2.8389 5.5125 2.40401 5.96717 1.85172 5.96717C1.29944 5.96717 0.842988 5.5161 0.93398 4.97136C1.35423 2.45547 3.34003 0.469677 5.85591 0.0494279ZM5.85172 5.96717C6.40401 5.96717 6.85172 5.51945 6.85172 4.96717C6.85172 4.41488 6.40401 3.96717 5.85172 3.96717C5.29944 3.96717 4.85172 4.41488 4.85172 4.96717C4.85172 5.51945 5.29944 5.96717 5.85172 5.96717Z" fill="white"/>
</svg>
