<svg width="14" height="14" viewBox="0 0 14 14" fill="none" xmlns="http://www.w3.org/2000/svg">
<path fill-rule="evenodd" clip-rule="evenodd" d="M12.967 0.0023379C13.5179 -0.0365484 13.9672 0.414879 13.9672 0.967164C13.9672 1.51945 13.5179 1.96282 12.9675 2.00821C7.13743 2.48903 2.48903 7.13743 2.00821 12.9675C1.96282 13.5179 1.51945 13.9672 0.967164 13.9672C0.414879 13.9672 -0.0365484 13.5179 0.0023379 12.967C0.491835 6.03216 6.03216 0.491835 12.967 0.0023379ZM12.9686 4.0164C13.5182 3.96191 13.9672 4.41488 13.9672 4.96716C13.9672 5.51945 13.5172 5.96061 12.9691 6.02881C9.34883 6.47934 6.47934 9.34883 6.02881 12.9692C5.96061 13.5172 5.51945 13.9672 4.96716 13.9672C4.41488 13.9672 3.96191 13.5182 4.0164 12.9686C4.48491 8.24302 8.24302 4.48491 12.9686 4.0164ZM12.9714 8.04942C13.5161 7.95843 13.9672 8.41488 13.9672 8.96716C13.9672 9.51945 13.5125 9.95434 12.9773 10.0906C11.5635 10.4505 10.4505 11.5635 10.0906 12.9773C9.95434 13.5125 9.51945 13.9672 8.96716 13.9672C8.41488 13.9672 7.95843 13.5161 8.04942 12.9714C8.46967 10.4555 10.4555 8.46967 12.9714 8.04942ZM12.9672 13.9672C13.5194 13.9672 13.9672 13.5194 13.9672 12.9672C13.9672 12.4149 13.5194 11.9672 12.9672 11.9672C12.4149 11.9672 11.9672 12.4149 11.9672 12.9672C11.9672 13.5194 12.4149 13.9672 12.9672 13.9672Z" fill="white"/>
</svg>
