<svg width="12" height="12" viewBox="0 0 12 12" fill="none" xmlns="http://www.w3.org/2000/svg">
<path fill-rule="evenodd" clip-rule="evenodd" d="M12 0.999969C12 0.447685 11.5523 -3.05176e-05 11 -3.05176e-05H8C7.44772 -3.05176e-05 7 0.447685 7 0.999969V3.99997C7 4.55225 7.44772 4.99997 8 4.99997H11C11.5523 4.99997 12 4.55225 12 3.99997V0.999969ZM12 8.00002C12 7.44774 11.5523 7.00002 11 7.00002H8.00001C7.44773 7.00002 7.00001 7.44774 7.00001 8.00002V11C7.00001 11.5523 7.44773 12 8.00001 12H11C11.5523 12 12 11.5523 12 11V8.00002ZM0 1C0 0.447715 0.447715 0 1 0H4C4.55228 0 5 0.447715 5 1V4C5 4.55228 4.55228 5 4 5H1C0.447715 5 0 4.55228 0 4V1ZM5 7.99997C5 7.44768 4.55228 6.99997 4 6.99997H1C0.447715 6.99997 0 7.44768 0 7.99997V11C0 11.5523 0.447715 12 1 12H4C4.55228 12 5 11.5523 5 11V7.99997Z" fill="white"/>
</svg>
