<svg width="8" height="10" viewBox="0 0 8 10" fill="none" xmlns="http://www.w3.org/2000/svg">
<path fill-rule="evenodd" clip-rule="evenodd" d="M7 10C6.44772 10 6 9.44036 6 8.75L6 1.25C6 0.559643 6.44772 0 7 0C7.55228 0 8 0.559643 8 1.25L8 8.75C8 9.44036 7.55228 10 7 10ZM0.529999 9.78994C-0.0168047 9.40701 -0.164562 8.63094 0.199974 8.05654L2.13978 5L0.199974 1.94346C-0.164562 1.36906 -0.0168047 0.592995 0.529999 0.210064C1.0768 -0.172867 1.81559 -0.0176525 2.18012 0.556743L5 5L2.18012 9.44326C1.81559 10.0177 1.0768 10.1729 0.529999 9.78994Z" fill="white"/>
</svg>
