<svg width="14" height="14" viewBox="0 0 14 14" fill="none" xmlns="http://www.w3.org/2000/svg">
<path fill-rule="evenodd" clip-rule="evenodd" d="M7 2.41379C4.46711 2.41379 2.41379 4.46711 2.41379 7C2.41379 7.73959 2.58796 8.43503 2.89643 9.05076C3.12974 9.51648 3.23149 10.1002 3.06325 10.689L2.80692 11.5862L7 11.5862C9.53289 11.5862 11.5862 9.53289 11.5862 7C11.5862 4.46711 9.53289 2.41379 7 2.41379ZM0 7C0 3.13401 3.13401 0 7 0C10.866 0 14 3.13401 14 7C14 10.866 10.866 14 7 14L2.48691 14C1.04361 14 0.00157685 12.6185 0.398084 11.2308L0.721621 10.0984C0.259274 9.16299 0 8.11008 0 7Z" fill="white"/>
</svg>
