<svg width="14" height="14" viewBox="0 0 14 14" fill="none" xmlns="http://www.w3.org/2000/svg">
<path fill-rule="evenodd" clip-rule="evenodd" d="M5 11.5858L11.5858 5L9 2.41421L2.41421 9L5 11.5858ZM0.297941 8.28784L8.29289 0.292894C8.68342 -0.0976312 9.31658 -0.0976312 9.70711 0.292894L13.7071 4.29289C13.8946 4.48043 14 4.73478 14 5C14 5.26522 13.8946 5.51957 13.7071 5.70711L5.71319 13.701C5.69866 13.7158 5.68369 13.7301 5.6683 13.7439C5.50866 13.8876 5.3139 13.9708 5.11357 13.9936C5.09175 13.996 5.06988 13.9978 5.04797 13.9989C5.03205 13.9996 5.01606 14 5 14H1C0.447715 14 0 13.5523 0 13V9.00155V9.00001C0 8.7435 0.09799 8.50302 0.264993 8.32192" fill="white"/>
</svg>
