<svg width="14" height="14" viewBox="0 0 14 14" fill="none" xmlns="http://www.w3.org/2000/svg">
<path fill-rule="evenodd" clip-rule="evenodd" d="M0.000332165 6.93103C0.00011089 6.95397 0 6.97694 0 6.99994C0 10.8659 3.13401 13.9999 7 13.9999C7.71622 13.9999 8.40731 13.8924 9.05801 13.6925L7.33591 11.1094C7.10822 10.7679 6.99945 10.3818 6.9998 9.99997C5.34304 9.99986 4.00001 8.65675 4.00001 6.99997C4.00001 6.9768 4.00027 6.95369 4.0008 6.93065C3.85534 6.97966 3.70864 7 3.57303 7H3.45318C3.16731 7 2.86032 6.9287 2.58288 6.74007C2.3129 6.55651 2.13686 6.30676 2.02829 6.05481L2 5.9923L1.97171 6.05481C1.86314 6.30676 1.6871 6.55651 1.41712 6.74007C1.13968 6.9287 0.832694 7 0.546816 7H0.426966C0.291708 7 0.145415 6.97977 0.000332165 6.93103ZM4.87345 4.88391C5.41675 4.33793 6.16891 3.99997 7.00001 3.99997C8.65686 3.99997 10 5.34312 10 6.99997C10 7.40889 9.9182 7.7987 9.77004 8.15392C10.1223 8.30049 10.4366 8.54928 10.6641 8.89057L12.3852 11.4723C13.3936 10.2594 14 8.70049 14 6.99994C14 3.13395 10.866 -6.10352e-05 7 -6.10352e-05C6.30502 -6.10352e-05 5.63369 0.10122 4.99997 0.289826L5 0.297931V0.311768L4.87345 4.88391ZM8.44531 9.16792C8.90484 8.86157 9.52571 8.98574 9.83206 9.44527L11.8321 12.4453C12.1384 12.9048 12.0142 13.5257 11.5547 13.832C11.0952 14.1384 10.4743 14.0142 10.168 13.5547L8.16796 10.5547C7.86161 10.0951 7.98578 9.47427 8.44531 9.16792ZM0.269663 0C0.11985 0 0 0.132414 0 0.297931L0.149813 5.71034C0.149813 5.89241 0.254682 6 0.426966 6H0.546816C0.786517 6 0.958802 5.88414 1.05618 5.65241L2 3.5669L2.94382 5.65241C3.0412 5.88414 3.21348 6 3.45318 6H3.57303C3.74532 6 3.85019 5.89241 3.85019 5.71034L4 0.297931C4 0.132414 3.88015 0 3.73034 0H3.47566C3.32584 0 3.22097 0.115862 3.21348 0.289655L3.08614 4.46897L2.38951 2.92966C2.33708 2.79724 2.2397 2.73103 2.10487 2.73103H1.89513C1.7603 2.73103 1.66292 2.79724 1.61049 2.92966L0.913858 4.46897L0.786517 0.297931C0.779026 0.115862 0.674157 0 0.524345 0H0.269663Z" fill="white"/>
</svg>
