<svg width="14" height="14" viewBox="0 0 14 14" fill="none" xmlns="http://www.w3.org/2000/svg">
<path fill-rule="evenodd" clip-rule="evenodd" d="M9.00001 10C8.63134 10 8.28035 9.88646 7.98912 9.68878L7.98144 12.9976C7.98016 13.5499 8.42684 13.9987 8.97912 14C9.5314 14.0012 9.98015 13.5546 9.98144 13.0023L9.98909 9.70335C9.70223 9.89203 9.35953 10 9.00001 10ZM12 5.4786C12.3153 5.42975 12.6206 5.29699 12.8793 5.07872C13.6318 4.4438 13.7148 3.31887 13.0481 2.58413L12 1.42906V1C12 0.447715 12.4477 0 13 0C13.5523 0 14 0.447715 14 1V13C14 13.5523 13.5523 14 13 14C12.4477 14 12 13.5523 12 13V5.4786ZM2 12C2 11.4477 1.55228 11 0.999998 11C0.447714 11 0 11.4477 0 12V13C2.41905e-06 13.5523 0.447718 14 1 14C1.55229 14 2 13.5523 2 13L2 12ZM6 9C6 8.44771 5.55229 8 5 8C4.44772 8 4 8.44772 4 9L4 13C4 13.5523 4.44772 14 5 14C5.55229 14 6 13.5523 6 13L6 9ZM9.58534 0.256122C9.43765 0.0933603 9.22428 0 9 0C8.77572 0 8.56236 0.0933603 8.41466 0.256122L5.69245 3.25612C5.40959 3.56785 5.44235 4.04167 5.76562 4.31443C6.08889 4.58719 6.58026 4.55561 6.86312 4.24388L8.22222 2.74609V8.25C8.22222 8.66421 8.57045 9 9 9C9.42955 9 9.77778 8.66421 9.77778 8.25V2.74609L11.1369 4.24388C11.4197 4.55561 11.9111 4.58719 12.2344 4.31443C12.5577 4.04167 12.5904 3.56785 12.3075 3.25612L9.58534 0.256122Z" fill="white"/>
</svg>
