<svg width="16" height="12" viewBox="0 0 16 12" fill="none" xmlns="http://www.w3.org/2000/svg">
<path fill-rule="evenodd" clip-rule="evenodd" d="M0 3C0 1.34315 1.34315 0 3 0H11C12.6569 0 14 1.34315 14 3L15 3C15.5523 3 16 3.44771 16 4V8C16 8.55228 15.5523 9 15 9H14C14 10.6569 12.6569 12 11 12H3C1.34315 12 0 10.6569 0 9V3ZM3 2C2.44772 2 2 2.44772 2 3L2 9C2 9.55228 2.44772 10 3 10H11C11.5523 10 12 9.55228 12 9V3C12 2.44772 11.5523 2 11 2H3ZM8.78993 5.66272C8.92998 5.45562 9 5.22781 9 4.97929V4.1716C9 3.95858 8.94748 3.76331 8.84245 3.5858C8.73742 3.40828 8.59737 3.26627 8.42232 3.15976C8.24726 3.05325 8.0547 3 7.84464 3H6.16411C5.95405 3 5.75857 3.05325 5.57768 3.15976C5.40263 3.26627 5.26258 3.40828 5.15755 3.5858C5.05252 3.76331 5 3.95858 5 4.1716V4.81953C5 4.93195 5.03793 5.02663 5.11379 5.10355C5.19548 5.17456 5.29176 5.21006 5.40263 5.21006H5.6477C5.75274 5.21006 5.84318 5.17456 5.91904 5.10355C6.00073 5.02663 6.04158 4.93195 6.04158 4.81953V4.1716C6.04158 4.14201 6.05325 4.11539 6.07659 4.09172C6.10576 4.06213 6.13494 4.04734 6.16411 4.04734H7.84464C7.87381 4.04734 7.90007 4.06213 7.92341 4.09172C7.94675 4.11539 7.95842 4.14201 7.95842 4.1716V4.97929C7.95842 5.0503 7.92925 5.09468 7.8709 5.11243L7.19694 5.36982C6.99271 5.44675 6.82057 5.58284 6.68053 5.77811C6.54632 5.97337 6.47921 6.18343 6.47921 6.40828V6.95858C6.47921 7.07101 6.51714 7.16568 6.593 7.2426C6.67469 7.31953 6.77097 7.35799 6.88184 7.35799H7.11816C7.22903 7.35799 7.32239 7.31953 7.39825 7.2426C7.47994 7.16568 7.52079 7.07101 7.52079 6.95858V6.42604L7.53829 6.37278C7.5558 6.35503 7.57039 6.34615 7.58206 6.34615L8.23851 6.08876C8.46608 6.00592 8.64989 5.86391 8.78993 5.66272ZM7.46827 8.80473C7.59664 8.67456 7.66083 8.51775 7.66083 8.33432C7.66083 8.15089 7.59664 7.99408 7.46827 7.86391C7.3399 7.73373 7.18527 7.66864 7.00438 7.66864C6.82349 7.66864 6.66594 7.73373 6.53173 7.86391C6.40336 7.99408 6.33917 8.15089 6.33917 8.33432C6.33917 8.51775 6.40336 8.67456 6.53173 8.80473C6.66594 8.93491 6.82349 9 7.00438 9C7.18527 9 7.3399 8.93491 7.46827 8.80473Z" fill="white"/>
</svg>
