<svg width="16" height="10" viewBox="0 0 16 10" fill="none" xmlns="http://www.w3.org/2000/svg">
<path fill-rule="evenodd" clip-rule="evenodd" d="M6 0C6.37877 0 6.72504 0.214002 6.89443 0.552786L10 6.76393L11.1056 4.55279C11.275 4.214 11.6212 4 12 4H15C15.5523 4 16 4.44772 16 5C16 5.55228 15.5523 6 15 6H12.618L10.8944 9.44721C10.725 9.786 10.3788 10 10 10C9.62123 10 9.27497 9.786 9.10557 9.44721L6 3.23607L4.89443 5.44721C4.72504 5.786 4.37877 6 4 6H1C0.447715 6 0 5.55228 0 5C0 4.44772 0.447715 4 1 4H3.38197L5.10557 0.552786C5.27496 0.214002 5.62123 0 6 0Z" fill="white"/>
</svg>
