<svg width="14" height="14" viewBox="0 0 14 14" fill="none" xmlns="http://www.w3.org/2000/svg">
<g clip-path="url(#clip0_5_2)">
<path fill-rule="evenodd" clip-rule="evenodd" d="M7 14C10.866 14 14 10.866 14 7C14 3.134 10.866 0 7 0C3.134 0 0 3.134 0 7C0 10.866 3.134 14 7 14ZM3.9375 8.75C5.14562 8.75 6.125 7.77062 6.125 6.5625C6.125 5.35438 5.14562 4.375 3.9375 4.375C2.72938 4.375 1.75 5.35438 1.75 6.5625C1.75 7.77062 2.72938 8.75 3.9375 8.75ZM12.25 6.5625C12.25 7.77062 11.2706 8.75 10.0625 8.75C8.85439 8.75 7.875 7.77062 7.875 6.5625C7.875 5.35438 8.85439 4.375 10.0625 4.375C11.2706 4.375 12.25 5.35438 12.25 6.5625ZM8.44064 10.8094C8.6115 10.9802 8.8885 10.9802 9.05936 10.8094C9.23021 10.6385 9.23021 10.3615 9.05936 10.1906L7 8.13128L4.94064 10.1906C4.76979 10.3615 4.76979 10.6385 4.94064 10.8094C5.1115 10.9802 5.3885 10.9802 5.55936 10.8094L7 9.36872L8.44064 10.8094Z" fill="white"/>
</g>
<defs>
<clipPath id="clip0_5_2">
<rect width="14" height="14" fill="white"/>
</clipPath>
</defs>
</svg>
