<svg width="8" height="10" viewBox="0 0 8 10" fill="none" xmlns="http://www.w3.org/2000/svg">
<path fill-rule="evenodd" clip-rule="evenodd" d="M1 0C1.55228 0 2 0.559644 2 1.25V8.75C2 9.44036 1.55228 10 1 10C0.447715 10 0 9.44036 0 8.75V1.25C0 0.559644 0.447715 0 1 0ZM7.47 0.210064C8.0168 0.592995 8.16456 1.36906 7.80003 1.94346L5.86022 5L7.80003 8.05654C8.16456 8.63094 8.0168 9.40701 7.47 9.78994C6.9232 10.1729 6.18441 10.0177 5.81988 9.44326L3 5L5.81988 0.556743C6.18441 -0.0176529 6.9232 -0.172866 7.47 0.210064Z" fill="white"/>
</svg>
