<svg width="16" height="16" viewBox="0 0 16 16" fill="none" xmlns="http://www.w3.org/2000/svg">
<path fill-rule="evenodd" clip-rule="evenodd" d="M16 8C16 12.4182 12.4182 16 8 16C3.58172 16 0 12.4182 0 8C0 3.58172 3.58172 0 8 0C12.4182 0 16 3.58172 16 8ZM7 6C7 5.44772 6.55228 5 6 5C5.44772 5 5 5.44772 5 6V10C5 10.5523 5.44772 11 6 11C6.55228 11 7 10.5523 7 10V6ZM11 6C11 5.44772 10.5523 5 10 5C9.44771 5 9 5.44772 9 6V10C9 10.5523 9.44771 11 10 11C10.5523 11 11 10.5523 11 10V6Z" fill="white"/>
</svg>
